<svg width="64" height="64" viewBox="0 0 24 24" fill="none" xmlns="http://www.w3.org/2000/svg">
  <rect x="3" y="4" width="18" height="16" rx="2" fill="currentColor" opacity="0.2"/>
  <path d="M8 2h8a2 2 0 0 0 2v2a2 2 0 0 0 2H8a2 2 0 0 0-2v-2a2 2 0 0 0 2zm0 4h8a2 2 0 0 0 2v2a2 2 0 0 0 2H8a2 2 0 0 0-2v-2a2 2 0 0 0 2z" fill="currentColor"/>
  <path d="M8 8h8v2H8v-2h8v2zm0 4h8v2H8v-2h8v2z" fill="currentColor"/>
  <path d="M12 11l-2-2h.586l.586-.586H8.828l.586.586H12l2 2z" fill="currentColor"/>
</svg>
